# Blender v2.93.0 OBJ File: 'TV.blend'
# www.blender.org
o TV_Cube
v 0.044514 1.068894 -0.846538
v 0.044514 0.150251 -0.846538
v 0.044514 1.068894 0.899717
v 0.044514 0.150251 0.899717
v 0.044514 1.098696 -0.876340
v 0.044514 0.098696 -0.876340
v 0.044514 1.098696 0.929519
v 0.044514 0.098696 0.929519
v 0.032046 1.061881 -0.833206
v 0.032046 0.157265 -0.833206
v 0.032046 1.061881 0.886385
v 0.032046 0.157265 0.886385
v 0.044514 0.251665 -0.876340
v 0.044514 0.251665 0.929519
v 0.044514 0.262542 -0.846538
v 0.044514 0.262542 0.899717
v 0.032046 0.262542 -0.833206
v 0.032046 0.262542 0.886385
v 0.044514 0.319570 -0.876340
v 0.044514 0.319570 0.929519
v 0.044514 0.327186 -0.846538
v 0.044514 0.327186 0.899717
v 0.032046 0.326623 -0.833206
v 0.032046 0.326623 0.886385
v 0.023318 1.098696 -0.876340
v -0.021078 1.098696 -0.833155
v -0.008075 1.098696 -0.863691
v -0.051895 0.098696 -0.795376
v -0.007498 0.098696 -0.876340
v -0.038891 0.098696 -0.836540
v -0.021078 1.098696 0.886333
v 0.023318 1.098696 0.929519
v -0.008075 1.098696 0.916870
v -0.007498 0.098696 0.929519
v -0.051895 0.098696 0.848555
v -0.038891 0.098696 0.889719
v -0.007450 0.251665 0.929519
v -0.051895 0.251665 0.848555
v -0.038877 0.251665 0.889719
v -0.051895 0.251665 -0.795376
v -0.007450 0.251665 -0.876340
v -0.038877 0.251665 -0.836540
v -0.021078 0.319570 0.848555
v 0.023367 0.319570 0.929519
v -0.008061 0.319570 0.889719
v -0.021078 0.319570 -0.795376
v 0.023367 0.319570 -0.876340
v -0.008061 0.319570 -0.836540
v 0.048126 0.133868 -0.776798
v 0.048126 0.134249 -0.775799
v 0.048126 0.133678 -0.774754
v 0.048126 0.131111 -0.772614
v 0.048126 0.133868 -0.787083
v 0.048126 0.134249 -0.788081
v 0.048126 0.133678 -0.789127
v 0.048126 0.131111 -0.791266
v -0.052272 0.251665 0.212145
v -0.052272 0.251665 -0.158966
v -0.021456 0.319570 0.212145
v -0.021456 0.319570 -0.158966
v -0.021456 0.370104 -0.116182
v -0.021456 0.341145 -0.153460
v -0.052272 0.188814 -0.129079
v -0.052272 0.218701 -0.158966
v -0.021456 0.370104 0.169360
v -0.021456 0.341145 0.206638
v -0.052272 0.188814 0.182258
v -0.052272 0.218701 0.212145
v -0.044369 0.217075 -0.121162
v -0.054644 0.217075 -0.121162
v -0.044369 0.227712 -0.113433
v -0.054644 0.227712 -0.113433
v -0.044369 0.223649 -0.100929
v -0.054644 0.223649 -0.100929
v -0.044369 0.210501 -0.100929
v -0.054644 0.210501 -0.100929
v -0.044369 0.206438 -0.113433
v -0.054644 0.206438 -0.113433
v -0.044369 0.207692 0.158611
v -0.054644 0.207692 0.158611
v -0.044369 0.220764 0.157192
v -0.054644 0.220764 0.157192
v -0.044369 0.226152 0.169185
v -0.054644 0.226152 0.169185
v -0.044369 0.216411 0.178016
v -0.054644 0.216411 0.178016
v -0.044369 0.205003 0.171481
v -0.054644 0.205003 0.171481
v -0.012421 0.337587 0.153895
v -0.022695 0.337587 0.153895
v -0.012421 0.348926 0.160552
v -0.022695 0.348926 0.160552
v -0.012421 0.346099 0.173392
v -0.022695 0.346099 0.173392
v -0.012421 0.333013 0.174672
v -0.022695 0.333013 0.174672
v -0.012421 0.327753 0.162622
v -0.022695 0.327753 0.162622
v -0.012421 0.337412 -0.119459
v -0.022695 0.337412 -0.119459
v -0.012421 0.350132 -0.116132
v -0.022695 0.350132 -0.116132
v -0.012421 0.350898 -0.103006
v -0.022695 0.350898 -0.103006
v -0.012421 0.338651 -0.098221
v -0.022695 0.338651 -0.098221
v -0.012421 0.330316 -0.108390
v -0.022695 0.330316 -0.108390
vt 0.510021 0.419398
vt 0.625000 0.419213
vt 0.625000 0.500000
vt 0.510021 0.500000
vt 0.375000 0.750000
vt 0.500000 0.750000
vt 0.500000 0.884749
vt 0.375000 0.884874
vt 0.705787 0.500000
vt 0.825439 0.501751
vt 0.875000 0.505979
vt 0.875000 0.744021
vt 0.825438 0.748249
vt 0.705787 0.750000
vt 0.625000 0.750000
vt 0.375000 0.365126
vt 0.500000 0.365251
vt 0.500000 0.500000
vt 0.375000 0.500000
vt 0.617549 0.504126
vt 0.617550 0.745874
vt 0.617550 0.745874
vt 0.617549 0.504126
vt 0.375000 0.005979
vt 0.500000 0.005979
vt 0.500000 0.244021
vt 0.375000 0.244021
vt 0.382451 0.504126
vt 0.382451 0.745874
vt 0.382451 0.504126
vt 0.382451 0.745874
vt 0.500000 0.504126
vt 0.509424 0.504126
vt 0.509424 0.504126
vt 0.500000 0.504126
vt 0.500000 0.745874
vt 0.500000 0.745874
vt 0.509424 0.745874
vt 0.509424 0.745874
vt 0.510021 0.750000
vt 0.625000 0.830787
vt 0.510021 0.830602
vt 0.125000 0.505979
vt 0.158720 0.501751
vt 0.240126 0.500000
vt 0.240126 0.750000
vt 0.158720 0.748249
vt 0.125000 0.744021
vt 0.510021 0.005979
vt 0.510021 0.244021
vt 0.625000 1.000000
vt 0.510021 1.000000
vt 0.510021 0.000000
vt 0.625000 0.000000
vt 0.625000 0.005979
vt 0.375000 0.250000
vt 0.500361 0.250000
vt 0.500000 1.000000
vt 0.375000 1.000000
vt 0.375000 0.000000
vt 0.500000 0.000000
vt 0.510021 0.250000
vt 0.500723 1.000000
vt 0.500723 0.000000
vt 0.625000 0.250000
vt 0.625000 0.244021
vt 0.500000 0.005979
vt 0.510021 0.005979
vt 0.510021 0.244021
vt 0.500000 0.244021
vt 0.375000 0.025149
vt 0.434440 0.005979
vt 0.434440 0.244021
vt 0.375000 0.224851
vt 0.559110 0.005979
vt 0.625000 0.026581
vt 0.625000 0.223419
vt 0.559110 0.244021
vt 1.000000 0.500000
vt 1.000000 1.000000
vt 0.800000 1.000000
vt 0.800000 0.500000
vt 0.600000 1.000000
vt 0.600000 0.500000
vt 0.400000 1.000000
vt 0.400000 0.500000
vt 0.478254 0.324164
vt 0.250000 0.490000
vt 0.021746 0.324164
vt 0.108932 0.055836
vt 0.391068 0.055836
vt 0.200000 1.000000
vt 0.200000 0.500000
vt 0.000000 1.000000
vt 0.000000 0.500000
vt 1.000000 0.500000
vt 1.000000 1.000000
vt 0.800000 1.000000
vt 0.800000 0.500000
vt 0.600000 1.000000
vt 0.600000 0.500000
vt 0.400000 1.000000
vt 0.400000 0.500000
vt 0.478254 0.324164
vt 0.250000 0.490000
vt 0.021746 0.324164
vt 0.108932 0.055836
vt 0.391068 0.055836
vt 0.200000 1.000000
vt 0.200000 0.500000
vt 0.000000 1.000000
vt 0.000000 0.500000
vt 1.000000 0.500000
vt 1.000000 1.000000
vt 0.800000 1.000000
vt 0.800000 0.500000
vt 0.600000 1.000000
vt 0.600000 0.500000
vt 0.400000 1.000000
vt 0.400000 0.500000
vt 0.478254 0.324164
vt 0.250000 0.490000
vt 0.021746 0.324164
vt 0.108932 0.055836
vt 0.391068 0.055836
vt 0.200000 1.000000
vt 0.200000 0.500000
vt 0.000000 1.000000
vt 0.000000 0.500000
vt 1.000000 0.500000
vt 1.000000 1.000000
vt 0.800000 1.000000
vt 0.800000 0.500000
vt 0.600000 1.000000
vt 0.600000 0.500000
vt 0.400000 1.000000
vt 0.400000 0.500000
vt 0.478254 0.324164
vt 0.250000 0.490000
vt 0.021746 0.324164
vt 0.108932 0.055836
vt 0.391068 0.055836
vt 0.200000 1.000000
vt 0.200000 0.500000
vt 0.000000 1.000000
vt 0.000000 0.500000
vn 0.0000 0.0000 -1.0000
vn 0.0000 0.0000 1.0000
vn 0.0000 1.0000 0.0000
vn 0.4902 -0.8716 0.0000
vn -1.0000 0.0000 0.0000
vn 1.0000 0.0000 0.0000
vn 0.4903 0.8716 0.0000
vn 0.7304 0.0000 0.6831
vn 0.7304 0.0000 -0.6831
vn 0.0000 -1.0000 0.0000
vn -0.9106 0.4133 0.0000
vn -0.6408 -0.0134 0.7676
vn -0.9399 -0.0142 0.3411
vn -0.7850 0.0002 -0.6195
vn -0.9535 0.0000 -0.3014
vn -0.7850 0.0002 0.6195
vn -0.9535 0.0000 0.3014
vn -0.7393 0.3355 -0.5838
vn -0.8751 0.3971 -0.2767
vn -0.7393 0.3355 0.5838
vn -0.8751 0.3971 0.2767
vn -0.6408 -0.0134 -0.7676
vn -0.9399 -0.0142 -0.3411
vn 0.0000 0.5878 -0.8090
vn 0.0000 0.9511 0.3090
vn 0.0000 -0.9511 0.3090
vn 0.0000 -0.5878 -0.8090
vn 0.0000 -0.1079 -0.9942
vn 0.0000 0.9122 -0.4098
vn 0.0000 0.6717 0.7409
vn 0.0000 -0.4971 0.8677
vn 0.0000 -0.9788 -0.2046
vn 0.0000 0.5063 -0.8624
vn 0.0000 0.9766 0.2150
vn 0.0000 0.0973 0.9953
vn 0.0000 -0.9165 0.4001
vn 0.0000 -0.6637 -0.7480
vn 0.0000 0.2531 -0.9674
vn 0.0000 0.9983 -0.0583
vn -0.0000 0.3639 0.9314
vn -0.0000 -0.7734 0.6339
vn 0.0000 -0.8419 -0.5396
s off
f 47/1/1 25/2/1 5/3/1 19/4/1
f 8/5/2 14/6/2 37/7/2 34/8/2
f 5/3/3 25/9/3 27/10/3 26/11/3 31/12/3 33/13/3 32/14/3 7/15/3
f 29/16/1 41/17/1 13/18/1 6/19/1
f 1/20/4 3/21/4 11/22/4 9/23/4
f 35/24/5 38/25/5 40/26/5 28/27/5
f 3/21/6 1/20/6 5/3/6 7/15/6
f 2/28/6 4/29/6 8/5/6 6/19/6
f 4/29/7 2/28/7 10/30/7 12/31/7
f 15/32/6 2/28/6 6/19/6 13/18/6 19/4/6 5/3/6 1/20/6 21/33/6
f 21/33/8 1/20/8 9/23/8 23/34/8 17/35/8 10/30/8 2/28/8 15/32/8
f 16/36/9 4/29/9 12/31/9 18/37/9 24/38/9 11/22/9 3/21/9 22/39/9
f 20/40/2 7/15/2 32/41/2 44/42/2
f 28/43/10 30/44/10 29/45/10 6/19/10 8/5/10 34/46/10 36/47/10 35/48/10
f 38/25/11 43/49/11 46/50/11 40/26/11
f 22/39/6 3/21/6 7/15/6 20/40/6 14/6/6 8/5/6 4/29/6 16/36/6
f 14/6/2 20/40/2 44/42/2 37/7/2
f 41/17/1 47/1/1 19/4/1 13/18/1
f 44/42/12 32/41/12 33/51/12 45/52/12
f 45/53/13 33/54/13 31/55/13 43/49/13
f 41/17/14 29/16/14 30/56/14 42/57/14
f 42/57/15 30/56/15 28/27/15 40/26/15
f 34/8/16 37/7/16 39/58/16 36/59/16
f 36/60/17 39/61/17 38/25/17 35/24/17
f 47/1/18 41/17/18 42/57/18 48/62/18
f 48/62/19 42/57/19 40/26/19 46/50/19
f 37/7/20 44/42/20 45/52/20 39/63/20
f 39/64/21 45/53/21 43/49/21 38/25/21
f 25/2/22 47/1/22 48/62/22 27/65/22
f 27/65/23 48/62/23 46/50/23 26/66/23
f 43/49/5 31/55/5 26/66/5 46/50/5
f 23/34/6 9/23/6 11/22/6 24/38/6 18/37/6 12/31/6 10/30/6 17/35/6
f 57/67/11 59/68/11 60/69/11 58/70/11
f 67/71/5 68/72/5 57/67/5 58/70/5 64/73/5 63/74/5
f 59/68/5 66/75/5 65/76/5 61/77/5 62/78/5 60/69/5
f 69/79/24 70/80/24 72/81/24 71/82/24
f 71/82/25 72/81/25 74/83/25 73/84/25
f 73/84/2 74/83/2 76/85/2 75/86/2
f 72/87/5 70/88/5 78/89/5 76/90/5 74/91/5
f 75/86/26 76/85/26 78/92/26 77/93/26
f 77/93/27 78/92/27 70/94/27 69/95/27
f 79/96/28 80/97/28 82/98/28 81/99/28
f 81/99/29 82/98/29 84/100/29 83/101/29
f 83/101/30 84/100/30 86/102/30 85/103/30
f 82/104/5 80/105/5 88/106/5 86/107/5 84/108/5
f 85/103/31 86/102/31 88/109/31 87/110/31
f 87/110/32 88/109/32 80/111/32 79/112/32
f 89/113/33 90/114/33 92/115/33 91/116/33
f 91/116/34 92/115/34 94/117/34 93/118/34
f 93/118/35 94/117/35 96/119/35 95/120/35
f 92/121/5 90/122/5 98/123/5 96/124/5 94/125/5
f 95/120/36 96/119/36 98/126/36 97/127/36
f 97/127/37 98/126/37 90/128/37 89/129/37
f 99/130/38 100/131/38 102/132/38 101/133/38
f 101/133/39 102/132/39 104/134/39 103/135/39
f 103/135/40 104/134/40 106/136/40 105/137/40
f 102/138/5 100/139/5 108/140/5 106/141/5 104/142/5
f 105/137/41 106/136/41 108/143/41 107/144/41
f 107/144/42 108/143/42 100/145/42 99/146/42
o PowerButton_Cube.004
v 0.040826 0.108285 -0.745886
v 0.040826 0.117109 -0.737061
v 0.040826 0.110869 -0.739646
v 0.040826 0.133942 -0.737061
v 0.040826 0.142766 -0.745886
v 0.040826 0.140182 -0.739646
v 0.040826 0.117109 -0.826097
v 0.040826 0.108285 -0.817273
v 0.040826 0.110869 -0.823512
v 0.040826 0.142766 -0.817273
v 0.040826 0.133942 -0.826097
v 0.040826 0.140182 -0.823512
v 0.047895 0.117109 -0.737061
v 0.047895 0.108285 -0.745886
v 0.047895 0.110869 -0.739646
v 0.047895 0.142766 -0.745886
v 0.047895 0.133942 -0.737061
v 0.047895 0.140182 -0.739646
v 0.047895 0.108285 -0.817273
v 0.047895 0.117109 -0.826097
v 0.047895 0.110869 -0.823512
v 0.047895 0.133942 -0.826097
v 0.047895 0.142766 -0.817273
v 0.047895 0.140182 -0.823512
v 0.048126 0.127736 -0.780838
v 0.048126 0.128972 -0.780410
v 0.048126 0.136768 -0.780410
v 0.048126 0.137719 -0.781123
v 0.048126 0.127498 -0.771378
v 0.048126 0.123505 -0.771473
v 0.048126 0.119988 -0.772804
v 0.048126 0.117231 -0.775466
v 0.048126 0.115615 -0.778319
v 0.048126 0.130469 -0.772396
v 0.048126 0.132747 -0.773783
v 0.048126 0.134166 -0.775632
v 0.048126 0.133737 -0.776886
v 0.048126 0.132912 -0.777282
v 0.048126 0.131756 -0.777282
v 0.048126 0.130337 -0.775863
v 0.048126 0.128719 -0.774773
v 0.048126 0.126739 -0.774278
v 0.048126 0.123470 -0.774542
v 0.048126 0.121226 -0.775764
v 0.048126 0.119311 -0.777447
v 0.048126 0.118486 -0.779428
v 0.048126 0.127213 -0.781940
v 0.048126 0.137909 -0.781940
v 0.048126 0.127736 -0.783042
v 0.048126 0.128972 -0.783470
v 0.048126 0.136768 -0.783470
v 0.048126 0.137719 -0.782757
v 0.048126 0.115092 -0.781940
v 0.048126 0.127498 -0.792502
v 0.048126 0.123505 -0.792407
v 0.048126 0.119988 -0.791076
v 0.048126 0.117231 -0.788414
v 0.048126 0.115615 -0.785562
v 0.048126 0.118057 -0.781940
v 0.048126 0.130469 -0.791484
v 0.048126 0.132747 -0.790098
v 0.048126 0.134166 -0.788249
v 0.048126 0.133737 -0.786995
v 0.048126 0.132912 -0.786598
v 0.048126 0.131756 -0.786598
v 0.048126 0.130337 -0.788018
v 0.048126 0.128719 -0.789107
v 0.048126 0.126739 -0.789602
v 0.048126 0.123470 -0.789338
v 0.048126 0.121226 -0.788117
v 0.048126 0.119311 -0.786433
v 0.048126 0.118486 -0.784453
vt 0.375000 0.524778
vt 0.393739 0.507257
vt 0.438980 0.500000
vt 0.561020 0.500000
vt 0.606261 0.507257
vt 0.625000 0.524778
vt 0.625000 0.725222
vt 0.606261 0.742743
vt 0.561020 0.750000
vt 0.438980 0.750000
vt 0.393739 0.742743
vt 0.375000 0.725222
vt 0.875000 0.524778
vt 0.875000 0.725222
vt 0.561020 1.000000
vt 0.438980 1.000000
vt 0.438980 0.250000
vt 0.561020 0.250000
vt 0.125000 0.524778
vt 0.125000 0.500000
vt 0.375000 0.500000
vt 0.375000 0.250000
vt 0.625000 0.500000
vt 0.875000 0.500000
vt 0.625000 0.250000
vt 0.125000 0.725222
vt 0.375000 0.750000
vt 0.125000 0.750000
vt 0.375000 1.000000
vt 0.875000 0.750000
vt 0.625000 0.750000
vt 0.625000 1.000000
vt 0.500000 0.158146
vt 0.397484 0.175656
vt 0.316667 0.209330
vt 0.247973 0.287453
vt 0.198135 0.379046
vt 0.187360 0.512394
vt 0.207564 0.593212
vt 0.252014 0.659212
vt 0.309932 0.717131
vt 0.309932 0.764275
vt 0.293769 0.797949
vt 0.242585 0.815459
vt 0.167155 0.757540
vt 0.110583 0.664600
vt 0.069043 0.543401
vt 0.072922 0.380474
vt 0.127232 0.236942
vt 0.235850 0.124445
vt 0.352227 0.058498
vt 0.500000 0.037162
vt 0.352227 0.058498
vt 0.235850 0.124445
vt 0.127232 0.236942
vt 0.072922 0.380474
vt 0.069043 0.543401
vt 0.110583 0.664600
vt 0.167155 0.757540
vt 0.242585 0.815459
vt 0.293769 0.797949
vt 0.309932 0.764275
vt 0.309932 0.717131
vt 0.252014 0.659212
vt 0.207564 0.593212
vt 0.187360 0.512394
vt 0.198135 0.379046
vt 0.247973 0.287453
vt 0.316667 0.209330
vt 0.397484 0.175656
vt 0.500000 0.968177
vt 0.466664 0.960418
vt 0.437570 0.921626
vt 0.437570 0.603529
vt 0.455026 0.553099
vt 0.500000 0.531764
vt 0.455026 0.553099
vt 0.437570 0.603529
vt 0.437570 0.921626
vt 0.466664 0.960418
vn 1.0000 0.0000 0.0000
vn 0.0000 1.0000 0.0000
vn 0.0000 0.0000 1.0000
vn 0.0000 0.0000 -1.0000
vn 0.0000 -0.9239 -0.3827
vn 0.0000 -0.3827 -0.9239
vn 0.0000 0.9239 -0.3827
vn 0.0000 0.3827 -0.9239
vn 0.0000 -0.9239 0.3827
vn 0.0000 -0.3827 0.9239
vn 0.0000 0.9239 0.3827
vn 0.0000 0.3827 0.9239
vn 0.0000 -1.0000 0.0000
s off
f 127/147/43 129/148/43 128/149/43 130/150/43 132/151/43 131/152/43 124/153/43 126/154/43 125/155/43 121/156/43 123/157/43 122/158/43
f 131/152/44 118/159/44 113/160/44 124/153/44
f 121/156/45 125/155/45 112/161/45 110/162/45
f 115/163/46 119/164/46 130/150/46 128/149/46
f 127/147/47 116/165/47 117/166/47 129/167/47
f 129/167/48 117/168/48 115/163/48 128/149/48
f 118/159/49 131/152/49 132/169/49 120/170/49
f 120/171/50 132/169/50 130/150/50 119/164/50
f 109/172/51 122/158/51 123/173/51 111/174/51
f 111/175/52 123/173/52 121/156/52 110/162/52
f 124/153/53 113/160/53 114/176/53 126/177/53
f 126/177/54 114/178/54 112/161/54 125/155/54
f 116/165/55 127/147/55 122/158/55 109/172/55
f 167/179/43 154/180/43 153/181/43 152/182/43 151/183/43 150/184/43 149/185/43 148/186/43 147/187/43 146/188/43 145/189/43 144/190/43 143/191/43 142/192/43 137/193/43 138/194/43 139/195/43 140/196/43 141/197/43 161/198/43 166/199/43 165/200/43 164/201/43 163/202/43 162/203/43 168/204/43 169/205/43 170/206/43 171/207/43 172/208/43 173/209/43 174/210/43 175/211/43 176/212/43 177/213/43 178/214/43 179/215/43 180/216/43
f 156/217/43 136/218/43 135/219/43 134/220/43 133/221/43 155/222/43 157/223/43 158/224/43 159/225/43 160/226/43
o Legs_Cube.005
v -0.037888 0.082744 0.823511
v -0.037888 0.103741 0.823511
v -0.037888 0.103741 0.692071
v 0.032311 0.082744 0.823511
v 0.032311 0.103741 0.823511
v 0.032311 0.103741 0.692071
v -0.037888 0.103741 0.757791
v 0.032311 0.103741 0.757791
v -0.002789 0.103741 0.692071
v -0.002789 0.082744 0.823511
v -0.002789 0.103741 0.823511
v -0.093281 -0.017256 0.785833
v -0.093281 -0.017256 0.823511
v -0.080625 -0.017256 0.785833
v -0.080625 -0.017256 0.823511
v 0.070024 -0.017256 0.823511
v 0.082680 -0.017256 0.823511
v 0.082680 -0.017256 0.785833
v 0.070024 -0.017256 0.785833
v -0.037888 0.082744 0.748679
v -0.042748 0.073971 0.760251
v -0.037888 0.082744 0.766903
v -0.039312 0.080175 0.755843
v 0.036730 0.073971 0.760251
v 0.032311 0.082744 0.748679
v 0.032311 0.082744 0.766903
v 0.033605 0.080175 0.755843
v -0.002789 0.082744 0.748679
v -0.002789 0.075988 0.763905
v -0.002789 0.080765 0.756913
v -0.037888 0.090395 0.692071
v -0.037888 0.082744 0.699722
v 0.032311 0.082744 0.699722
v 0.032311 0.090395 0.692071
v -0.002789 0.090395 0.692071
v -0.002789 0.082744 0.699722
v -0.037888 0.082744 -0.770332
v -0.037888 0.103741 -0.770332
v -0.037888 0.103741 -0.638893
v 0.032311 0.082744 -0.770332
v 0.032311 0.103741 -0.770332
v 0.032311 0.103741 -0.638893
v -0.037888 0.103741 -0.704612
v 0.032311 0.103741 -0.704612
v -0.002789 0.103741 -0.638893
v -0.002789 0.082744 -0.770332
v -0.002789 0.103741 -0.770332
v -0.093281 -0.017256 -0.732654
v -0.093281 -0.017256 -0.770332
v -0.080625 -0.017256 -0.732654
v -0.080625 -0.017256 -0.770332
v 0.070024 -0.017256 -0.770332
v 0.082680 -0.017256 -0.770332
v 0.082680 -0.017256 -0.732654
v 0.070024 -0.017256 -0.732654
v -0.037888 0.082744 -0.695500
v -0.042748 0.073971 -0.707072
v -0.037888 0.082744 -0.713724
v -0.039312 0.080175 -0.702664
v 0.036730 0.073971 -0.707072
v 0.032311 0.082744 -0.695500
v 0.032311 0.082744 -0.713724
v 0.033605 0.080175 -0.702664
v -0.002789 0.082744 -0.695500
v -0.002789 0.075988 -0.710727
v -0.002789 0.080765 -0.703734
v -0.037888 0.090395 -0.638893
v -0.037888 0.082744 -0.646543
v 0.032311 0.082744 -0.646543
v 0.032311 0.090395 -0.638893
v -0.002789 0.090395 -0.638893
v -0.002789 0.082744 -0.646543
vt 0.375000 0.875000
vt 0.625000 0.875000
vt 0.625000 1.000000
vt 0.375000 1.000000
vt 0.228044 0.625000
vt 0.375000 0.625000
vt 0.375000 0.625000
vt 0.250000 0.625000
vt 0.250000 0.514551
vt 0.375000 0.514551
vt 0.375000 0.607669
vt 0.250000 0.607669
vt 0.125000 0.607669
vt 0.125000 0.514551
vt 0.125000 0.625000
vt 0.273397 0.625000
vt 0.250000 0.625000
vt 0.125000 0.625000
vt 0.466093 0.500000
vt 0.625000 0.500000
vt 0.625000 0.625000
vt 0.625000 0.750000
vt 0.375000 0.750000
vt 0.375000 0.642331
vt 0.375000 0.145960
vt 0.375000 0.125000
vt 0.375000 0.125000
vt 0.375000 0.125000
vt 0.375000 0.000000
vt 0.375000 0.000000
vt 0.375000 0.107669
vt 0.250000 0.750000
vt 0.125000 0.750000
vt 0.375000 1.000000
vt 0.375000 0.875000
vt 0.250000 0.750000
vt 0.250000 0.634736
vt 0.250000 0.750000
vt 0.375000 0.750000
vt 0.250000 0.634838
vt 0.375000 0.875000
vt 0.125000 0.500000
vt 0.250000 0.500000
vt 0.375000 0.500000
vt 0.125000 0.625000
vt 0.250000 0.625000
vt 0.375000 0.625000
vt 0.625000 0.375000
vt 0.466093 0.375000
vt 0.466093 0.250000
vt 0.625000 0.250000
vt 0.376435 0.625000
vt 0.381406 0.625000
vt 0.625000 0.000000
vt 0.625000 0.125000
vt 0.375000 0.235449
vt 0.375000 0.875000
vt 0.375000 1.000000
vt 0.625000 1.000000
vt 0.625000 0.875000
vt 0.228044 0.625000
vt 0.250000 0.625000
vt 0.375000 0.625000
vt 0.375000 0.625000
vt 0.250000 0.514551
vt 0.125000 0.514551
vt 0.125000 0.607669
vt 0.250000 0.607669
vt 0.375000 0.607669
vt 0.375000 0.514551
vt 0.125000 0.625000
vt 0.125000 0.625000
vt 0.250000 0.625000
vt 0.273397 0.625000
vt 0.375000 0.642331
vt 0.375000 0.750000
vt 0.625000 0.750000
vt 0.625000 0.625000
vt 0.625000 0.500000
vt 0.466093 0.500000
vt 0.375000 0.145960
vt 0.375000 0.107669
vt 0.375000 0.000000
vt 0.375000 0.000000
vt 0.375000 0.125000
vt 0.375000 0.125000
vt 0.375000 0.125000
vt 0.125000 0.750000
vt 0.250000 0.750000
vt 0.375000 0.875000
vt 0.375000 1.000000
vt 0.250000 0.750000
vt 0.250000 0.750000
vt 0.250000 0.634736
vt 0.375000 0.750000
vt 0.250000 0.634838
vt 0.375000 0.875000
vt 0.375000 0.500000
vt 0.250000 0.500000
vt 0.125000 0.500000
vt 0.250000 0.625000
vt 0.125000 0.625000
vt 0.375000 0.625000
vt 0.625000 0.375000
vt 0.625000 0.250000
vt 0.466093 0.250000
vt 0.466093 0.375000
vt 0.381406 0.625000
vt 0.376435 0.625000
vt 0.375000 0.235449
vt 0.625000 0.125000
vt 0.625000 0.000000
vn 0.0000 0.0000 1.0000
vn -0.0781 -0.2955 -0.9521
vn 0.0000 -1.0000 0.0000
vn 0.0775 -0.2989 -0.9511
vn 1.0000 -0.0000 0.0000
vn -0.8748 0.4846 -0.0000
vn -0.8002 -0.5983 0.0415
vn 0.7804 -0.6238 0.0433
vn 0.0000 -0.7071 -0.7071
vn 0.0670 -0.7286 -0.6816
vn 0.0121 -0.9593 -0.2822
vn -0.0675 -0.7278 -0.6825
vn -0.0122 -0.9592 -0.2823
vn 0.0000 0.0000 -1.0000
vn 0.8931 0.4498 -0.0000
vn -1.0000 0.0000 0.0000
vn -0.0781 -0.2955 0.9521
vn 0.0775 -0.2989 0.9511
vn -0.8002 -0.5983 -0.0415
vn 0.7804 -0.6238 -0.0433
vn 0.0000 -0.7071 0.7071
vn 0.0670 -0.7286 0.6816
vn 0.0121 -0.9593 0.2822
vn -0.0675 -0.7278 0.6825
vn -0.0122 -0.9592 0.2823
s off
f 190/227/56 191/228/56 182/229/56 181/230/56
f 209/231/57 204/232/57 198/233/57 199/234/57
f 216/235/58 213/236/58 205/237/58 208/238/58 200/239/58 212/240/58
f 201/241/59 209/242/59 194/243/59 192/244/59
f 213/236/60 214/245/60 186/246/60 188/247/60 185/248/60 184/249/60 206/250/60 205/237/60
f 200/251/61 203/252/61 201/253/61 192/254/61 193/255/61 181/256/61 202/257/61
f 184/249/56 185/248/56 191/228/56 190/227/56
f 192/244/58 194/243/58 195/258/58 193/259/58
f 190/227/56 181/230/56 193/260/56 195/261/56
f 190/262/62 209/263/62 199/234/62 196/264/62
f 199/234/58 198/233/58 197/265/58 196/264/58
f 209/266/63 190/262/63 195/258/63 194/243/63
f 184/249/56 190/227/56 196/267/56 197/265/56
f 216/235/64 212/240/64 211/268/64 215/269/64 214/270/64 213/236/64
f 209/242/65 201/241/65 203/271/65 210/272/65
f 210/272/66 203/271/66 200/239/66 208/238/66
f 204/232/67 209/231/67 210/272/67 207/273/67
f 207/273/68 210/272/68 208/238/68 205/237/68
f 189/274/69 186/246/69 214/245/69 215/275/69 211/276/69 183/277/69
f 206/250/70 184/249/70 197/265/70 198/233/70 204/232/70 207/278/70 205/279/70
f 181/256/71 182/280/71 187/281/71 183/277/71 211/276/71 212/282/71 200/251/71 202/257/71
f 226/283/69 217/284/69 218/285/69 227/286/69
f 245/287/72 235/288/72 234/289/72 240/290/72
f 252/291/58 248/292/58 236/293/58 244/294/58 241/295/58 249/296/58
f 237/297/73 228/298/73 230/299/73 245/300/73
f 249/296/60 241/295/60 242/301/60 220/302/60 221/303/60 224/304/60 222/305/60 250/306/60
f 236/307/61 238/308/61 217/309/61 229/310/61 228/311/61 237/312/61 239/313/61
f 220/302/69 226/283/69 227/286/69 221/303/69
f 228/298/58 229/314/58 231/315/58 230/299/58
f 226/283/69 231/316/69 229/317/69 217/284/69
f 226/318/74 232/319/74 235/288/74 245/320/74
f 235/288/58 232/319/58 233/321/58 234/289/58
f 245/322/75 230/299/75 231/315/75 226/318/75
f 220/302/69 233/321/69 232/323/69 226/283/69
f 252/291/76 249/296/76 250/324/76 251/325/76 247/326/76 248/292/76
f 245/300/77 246/327/77 239/328/77 237/297/77
f 246/327/78 244/294/78 236/293/78 239/328/78
f 240/290/79 243/329/79 246/327/79 245/287/79
f 243/329/80 241/295/80 244/294/80 246/327/80
f 225/330/56 219/331/56 247/332/56 251/333/56 250/306/56 222/305/56
f 242/301/70 241/334/70 243/335/70 240/290/70 234/289/70 233/321/70 220/302/70
f 217/309/71 238/308/71 236/307/71 248/336/71 247/332/71 219/331/71 223/337/71 218/338/71
